<svg width="512" height="512" xmlns="http://www.w3.org/2000/svg">

 <g>
  <title>background</title>
  <rect fill="none" id="canvas_background" height="402" width="582" y="-1" x="-1"/>
 </g>
 <g>
  <title>Layer 1</title>
  <path id="svg_1" fill="#EDEBED" d="m256,152c-72.207,0 -137.84,33.479 -186.72,88.109c-8.05,8.997 -8.05,22.785 0,31.782c48.88,54.63 114.513,88.109 186.72,88.109s137.84,-33.479 186.72,-88.109c8.05,-8.997 8.05,-22.785 0,-31.782c-48.88,-54.63 -114.513,-88.109 -186.72,-88.109z"/>
  <circle id="svg_2" fill="#AEA8AF" r="72" cy="256" cx="256"/>
  <path id="svg_3" fill="#9C969E" d="m292,292c-39.765,0 -72,-32.236 -72,-72c0,-10.559 2.328,-20.555 6.411,-29.589c-24.99,11.294 -42.411,36.383 -42.411,65.589c0,39.764 32.235,72 72,72c29.206,0 54.295,-17.421 65.589,-42.411c-9.034,4.082 -19.031,6.411 -29.589,6.411z"/>
  <circle id="svg_4" fill="#6F6571" r="36" cy="256" cx="256"/>
  <g stroke="null" id="svg_5">
   <path stroke="null" id="svg_6" fill="#59D8FF" d="m504,111.304359c-4.422,0 -8,-4.983652 -8,-11.130434l0,-77.913041l-56,0c-4.422,0 -8,-4.983652 -8,-11.130434s3.578,-11.130434 8,-11.130434l56,0c8.82,0 16,9.984 16,22.260869l0,77.913041c0,6.146782 -3.578,11.130434 -8,11.130434z"/>
   <path stroke="null" id="svg_7" fill="#59D8FF" d="m8,111.304359c-4.422,0 -8,-4.983652 -8,-11.130434l0,-77.913041c0,-12.276869 7.18,-22.260869 16,-22.260869l56,0c4.422,0 8,4.983652 8,11.130434s-3.578,11.130434 -8,11.130434l-56,0l0,77.913041c0,6.146782 -3.578,11.130434 -8,11.130434z"/>
   <path stroke="null" id="svg_8" fill="#59D8FF" d="m72,511.999999l-56,0c-8.82,0 -16,-9.984 -16,-22.260869l0,-77.913041c0,-6.146782 3.578,-11.130434 8,-11.130434s8,4.983652 8,11.130434l0,77.913041l56,0c4.422,0 8,4.983652 8,11.130434s-3.578,11.130434 -8,11.130434z"/>
   <path stroke="null" id="svg_9" fill="#59D8FF" d="m496,511.999999l-56,0c-4.422,0 -8,-4.983652 -8,-11.130434s3.578,-11.130434 8,-11.130434l56,0l0,-77.913041c0,-6.146782 3.578,-11.130434 8,-11.130434s8,4.983652 8,11.130434l0,77.913041c0,12.276869 -7.18,22.260869 -16,22.260869z"/>
  </g>
  <path id="svg_10" fill="#99E7FF" d="m408,16l-96,0c-4.422,0 -8,-3.582 -8,-8s3.578,-8 8,-8l96,0c4.422,0 8,3.582 8,8s-3.578,8 -8,8z"/>
  <g id="svg_11">
   <path id="svg_12" fill="#CCF3FF" d="m280,16l-16,0c-4.422,0 -8,-3.582 -8,-8s3.578,-8 8,-8l16,0c4.422,0 8,3.582 8,8s-3.578,8 -8,8z"/>
   <path id="svg_13" fill="#CCF3FF" d="m408,48l-64,0c-4.422,0 -8,-3.582 -8,-8s3.578,-8 8,-8l64,0c4.422,0 8,3.582 8,8s-3.578,8 -8,8z"/>
  </g>
  <g id="svg_14">
   <path id="svg_15" fill="#99E7FF" d="m216,511.000008l-112,0c-4.422,0 -8,-3.582 -8,-8s3.578,-8 8,-8l112,0c4.422,0 8,3.582 8,8s-3.578,8 -8,8z"/>
   <path id="svg_16" fill="#99E7FF" d="m136,479.000008l-32,0c-4.422,0 -8,-3.582 -8,-8s3.578,-8 8,-8l32,0c4.422,0 8,3.582 8,8s-3.578,8 -8,8z"/>
  </g>
  <path id="svg_17" fill="#CCF3FF" d="m184,479l-16,0c-4.422,0 -8,-3.582 -8,-8s3.578,-8 8,-8l16,0c4.422,0 8,3.582 8,8s-3.578,8 -8,8z"/>
  <path id="svg_18" fill="#99E7FF" d="m40,92c-4.422,0 -8,-3.582 -8,-8l0,-32c0,-4.418 3.578,-8 8,-8s8,3.582 8,8l0,32c0,4.418 -3.578,8 -8,8z"/>
  <path id="svg_19" fill="#CCF3FF" d="m72,76c-4.422,0 -8,-3.582 -8,-8l0,-16c0,-4.418 3.578,-8 8,-8s8,3.582 8,8l0,16c0,4.418 -3.578,8 -8,8z"/>
  <g id="svg_20">
   <circle id="svg_21" fill="#99E7FF" r="16" cy="444" cx="456"/>
   <path id="svg_22" fill="#99E7FF" d="m384,264l-256,0c-4.422,0 -8,-3.582 -8,-8s3.578,-8 8,-8l256,0c4.422,0 8,3.582 8,8s-3.578,8 -8,8z"/>
  </g>
  <g id="svg_23"/>
  <g id="svg_24"/>
  <g id="svg_25"/>
  <g id="svg_26"/>
  <g id="svg_27"/>
  <g id="svg_28"/>
  <g id="svg_29"/>
  <g id="svg_30"/>
  <g id="svg_31"/>
  <g id="svg_32"/>
  <g id="svg_33"/>
  <g id="svg_34"/>
  <g id="svg_35"/>
  <g id="svg_36"/>
  <g id="svg_37"/>
 </g>
</svg>